<?xml version="1.0" standalone="no"?>
<!DOCTYPE svg PUBLIC "-//W3C//DTD SVG 20010904//EN"
 "http://www.w3.org/TR/2001/REC-SVG-20010904/DTD/svg10.dtd">
<svg version="1.0" xmlns="http://www.w3.org/2000/svg"
 width="97.000000pt" height="129.000000pt" viewBox="0 0 97.000000 129.000000"
 preserveAspectRatio="xMidYMid meet">

<g transform="translate(0.000000,129.000000) scale(0.100000,-0.100000)"
fill="#000000" stroke="none">
<path d="M400 1275 c-25 -8 -64 -30 -87 -50 -91 -77 -119 -205 -68 -312 l24
-53 83 1 c81 0 82 0 58 17 -43 29 -70 64 -81 104 -27 102 49 198 156 198 80 0
143 -52 160 -131 13 -59 -28 -138 -90 -176 -17 -10 -6 -12 63 -12 l83 -1 26
56 c22 48 25 66 21 124 -13 178 -176 288 -348 235z"/>
<path d="M140 803 c-93 -3 -117 -7 -128 -20 -7 -11 -12 -52 -12 -113 0 -81 3
-100 18 -113 10 -10 24 -17 30 -17 9 0 12 -68 12 -260 0 -246 1 -260 19 -270
27 -14 785 -14 812 0 18 10 19 24 19 270 0 211 3 260 13 260 8 0 21 8 30 18
22 24 24 198 3 227 -13 18 -33 19 -357 20 -189 1 -396 0 -459 -2z m720 -133
l0 -30 -375 0 -375 0 0 30 0 30 375 0 375 0 0 -30z m-52 -347 l-3 -218 -320 0
-320 0 -3 218 -2 217 325 0 325 0 -2 -217z"/>
<path d="M430 425 l0 -55 -55 0 -55 0 0 -50 0 -50 55 0 55 0 0 -55 0 -55 55 0
55 0 0 55 0 55 55 0 55 0 0 50 0 50 -55 0 -55 0 0 55 0 55 -55 0 -55 0 0 -55z"/>
</g>
</svg>
